<svg width="128" height="128" viewBox="0 0 128 128" xmlns="http://www.w3.org/2000/svg">
    <defs>
        <linearGradient id="screenGradient128" x1="0%" y1="0%" x2="100%" y2="100%">
            <stop offset="0%" style="stop-color:#2A4A8E"/>
            <stop offset="100%" style="stop-color:#1C2E57"/>
        </linearGradient>
        <linearGradient id="starGradient128" x1="100%" y1="0%" x2="0%" y2="100%">
            <stop offset="0%" style="stop-color:#FFD700"/>
            <stop offset="100%" style="stop-color:#FFFACD"/>
        </linearGradient>
        <!-- Star shape centered at (0,0) with main radius 7 -->
        <path id="starShape128" d="M0,-7 L1.75,-1.75 L7,0 L1.75,1.75 L0,7 L-1.75,1.75 L-7,0 L-1.75,-1.75 Z" />
    </defs>

    <!-- Screen -->
    <rect x="12" y="28" width="104" height="72" rx="6" ry="6" fill="url(#screenGradient128)" stroke="#4A6AA0" stroke-width="1.5"/>

    <!-- Play Button (shifted up by 3px from screen center) -->
    <path d="M 54 46 C 52 46, 51 47, 51 49 L 51 73 C 51 75, 52 76, 54 76 L 77 64 C 79 63, 79 59, 77 58 L 54 46 Z" fill="#FFFFFF"/>

    <!-- Magic Stars -->
    <use href="#starShape128" fill="url(#starGradient128)" transform="translate(112 23) scale(1.6) rotate(15)"/>
    <use href="#starShape128" fill="url(#starGradient128)" transform="translate(120 36) scale(1.1) rotate(-10)"/>
    <use href="#starShape128" fill="url(#starGradient128)" transform="translate(103 40) scale(0.8) rotate(5)"/>
</svg>